<svg height="512pt" viewBox="0 0 512 512" width="512pt" xmlns="http://www.w3.org/2000/svg"><path d="m497 91c-41.355469 0-75 33.644531-75 75v59.996094c0 4.007812-1.5625 7.773437-4.328125 10.539062l-.75.742188c-2.167969-4.746094-5.203125-9.191406-9.105469-13.09375-17.589844-17.589844-46.042968-17.59375-63.632812 0l-81.214844 81.214844c-2.53125 2.527343-4.855469 5.203124-6.96875 8.007812-2.113281-2.804688-4.4375-5.480469-6.96875-8.007812l-81.214844-81.214844c-17.585937-17.589844-46.042968-17.59375-63.632812 0-3.902344 3.902344-6.9375 8.347656-9.105469 13.09375l-.683594-.675782c-2.832031-2.832031-4.394531-6.601562-4.394531-10.609374v-59.992188c0-41.355469-33.644531-75-75-75-8.285156 0-15 6.714844-15 15v163.382812c0 20.710938 9.085938 37.035157 12.148438 40.617188l103.023437 120.476562c3.816406 6.746094 5.828125 14.378907 5.828125 22.144532v44.378906c0 8.285156 6.714844 15 15 15h240c8.28125 0 15-6.714844 15-15v-44.382812c0-7.761719 2.011719-15.394532 5.824219-22.144532l103.023437-120.472656c.542969-.636719 1.035156-1.316406 1.464844-2.03125 6.992188-11.65625 10.6875-24.996094 10.6875-38.585938v-163.382812c0-8.285156-6.71875-15-15-15zm-461.175781 200.527344c-3.8125-6.75-5.824219-14.382813-5.824219-22.144532v-145.8125c17.460938 6.191407 30 22.871094 30 42.429688v59.996094c0 12.019531 4.679688 23.320312 13.242188 31.882812l82.214843 81.214844c5.882813 5.808594 15.351563 5.765625 21.179688-.097656 5.828125-5.863282 5.8125-15.335938-.03125-21.179688l-51.210938-51.210937c-5.847656-5.847657-5.847656-15.363281 0-21.210938 5.847657-5.847656 15.359375-5.84375 21.207031 0l81.214844 81.21875c8.5 8.496094 13.179688 19.796875 13.179688 31.820313v62.566406h-96.992188c-1.109375-2.378906-2.335937-4.707031-3.695312-6.96875-.429688-.714844-.917969-1.394531-1.460938-2.03125zm115.175781 190.472656s-.015625-30.460938-.027344-31h90.027344v31zm210 0h-90v-31h90.027344c-.011719.539062-.027344 1.078125-.027344 1.617188zm121-212.617188c0 7.761719-2.011719 15.394532-5.828125 22.144532l-103.023437 120.472656c-.542969.636719-1.03125 1.316406-1.460938 2.03125-1.359375 2.261719-2.585938 4.589844-3.691406 6.96875h-96.996094v-62.570312c0-12.019532 4.679688-23.320313 13.179688-31.820313l81.214843-81.214844c5.847657-5.847656 15.359375-5.847656 21.207031 0 5.847657 5.847657 5.847657 15.363281 0 21.207031l-51.210937 51.210938c-5.84375 5.847656-5.859375 15.320312-.03125 21.183594 5.828125 5.863281 15.300781 5.90625 21.179687.097656l82.28125-81.28125c8.496094-8.5 13.179688-19.796875 13.179688-31.820312v-59.992188c0-19.554688 12.539062-36.238281 30-42.429688zm0 0"/><path d="m211.519531 229.308594c11.0625 9.339844 22.5 18.992187 34.65625 29.527344 5.636719 4.886718 14.007813 4.886718 19.648438 0 12.152343-10.53125 23.589843-20.1875 34.652343-29.523438 20.117188-16.980469 37.492188-31.644531 52.375-45.859375 27.15625-25.9375 52.28125-55.472656 52.28125-95.648437 0-47.878907-34.105468-87.804688-82.066406-87.804688-28.46875 0-51.289062 14.730469-67.066406 38.5625-15.78125-23.835938-38.601562-38.5625-67.066406-38.5625-47.996094 0-82.070313 39.957031-82.070313 87.804688 0 25.175781 9.738281 48.367187 30.644531 72.992187 18.109376 21.328125 44.011719 43.195313 74.011719 68.511719zm-22.585937-199.308594c15.785156 0 29.234375 7.449219 39.980468 22.144531 8.929688 12.210938 12.605469 24.910157 12.628907 24.984375 1.800781 6.5 7.714843 10.996094 14.457031 10.996094s12.65625-4.496094 14.453125-10.996094c.132813-.472656 13.503906-47.128906 52.613281-47.128906 29.683594 0 52.066406 24.851562 52.066406 57.804688 0 23.660156-12.058593 44.394531-43 73.953124-14.21875 13.578126-31.265624 27.96875-51.007812 44.628907-8.121094 6.855469-16.445312 13.878906-25.128906 21.316406-8.683594-7.4375-17.007813-14.464844-25.128906-21.320313-58.621094-49.476562-94.003907-79.339843-94.003907-118.578124 0-32.953126 22.386719-57.804688 52.070313-57.804688zm0 0"/></svg>